<?xml version="1.0" standalone="no"?>
<!DOCTYPE svg PUBLIC "-//W3C//DTD SVG 20010904//EN"
 "http://www.w3.org/TR/2001/REC-SVG-20010904/DTD/svg10.dtd">
<svg version="1.0" xmlns="http://www.w3.org/2000/svg"
 width="896.000000pt" height="896.000000pt" viewBox="0 0 896.000000 896.000000"
 preserveAspectRatio="xMidYMid meet">
<metadata>
Created by potrace 1.14, written by Peter Selinger 2001-2017
</metadata>
<g transform="translate(0.000000,896.000000) scale(0.100000,-0.100000)"
fill="#000000" stroke="none">
<path d="M4454 8937 c-35 -27 -59 -46 -87 -71 -12 -10 -67 -55 -122 -99 -55
-45 -102 -84 -105 -87 -3 -3 -41 -35 -85 -70 -44 -35 -82 -67 -85 -70 -3 -3
-41 -35 -85 -70 -44 -35 -96 -78 -116 -94 -39 -34 -108 -92 -124 -104 -31 -24
-182 -149 -194 -160 -8 -7 -46 -39 -85 -69 -39 -31 -79 -64 -88 -72 -9 -9 -34
-29 -54 -46 -32 -25 -113 -91 -199 -163 -11 -9 -44 -36 -72 -60 -28 -23 -53
-39 -55 -35 -3 4 -4 293 -4 641 1 347 -2 632 -6 632 -3 0 -8 -3 -10 -8 -1 -4
-23 -23 -48 -42 -24 -19 -52 -42 -61 -50 -8 -8 -27 -24 -40 -35 -13 -11 -49
-40 -79 -65 -30 -25 -64 -52 -75 -62 -94 -77 -227 -186 -260 -213 -22 -19
-108 -89 -191 -157 -83 -68 -157 -129 -165 -136 -8 -6 -44 -37 -81 -68 -44
-36 -68 -64 -68 -78 -1 -11 -1 -301 -1 -643 l0 -622 -47 -37 c-26 -21 -49 -41
-52 -44 -3 -3 -27 -23 -55 -45 -27 -22 -57 -46 -66 -55 -9 -8 -30 -26 -49 -40
-18 -14 -44 -35 -59 -48 -14 -13 -42 -35 -61 -50 -19 -15 -47 -38 -62 -52 -15
-14 -42 -36 -59 -50 -35 -27 -101 -82 -109 -90 -3 -3 -37 -31 -76 -62 -39 -31
-77 -62 -85 -70 -8 -7 -48 -40 -89 -73 -41 -32 -82 -66 -92 -75 -9 -8 -31 -26
-49 -40 -18 -14 -37 -30 -43 -35 -6 -6 -49 -41 -96 -80 -47 -38 -92 -75 -100
-81 -8 -7 -34 -30 -58 -51 l-42 -38 2 -698 c3 -697 3 -698 23 -680 11 10 74
62 140 116 66 54 132 108 146 120 14 12 44 37 67 55 23 19 50 41 60 50 11 10
35 29 53 44 19 14 48 38 64 53 17 14 51 42 77 62 27 21 48 41 48 45 0 4 6 8
14 8 8 0 16 4 18 8 2 5 43 41 91 80 49 40 95 78 103 85 7 6 19 17 26 22 7 6
56 45 108 89 129 106 125 103 215 175 44 35 89 72 100 82 29 26 82 70 245 204
80 66 147 123 148 127 2 4 8 8 13 8 6 0 20 10 33 23 13 12 37 33 55 47 55 44
76 61 101 83 14 12 42 34 62 49 20 15 42 33 50 40 7 7 38 33 68 58 30 25 57
47 60 50 5 5 98 81 130 107 79 62 167 138 178 151 6 9 12 12 12 8 0 -4 6 -1
13 6 8 7 33 29 56 48 24 19 48 40 54 45 7 6 37 30 67 55 30 25 60 49 66 55 6
5 28 24 49 40 21 17 43 35 50 40 10 10 103 86 139 115 10 8 38 31 61 50 57 48
113 94 230 190 55 45 109 89 120 98 11 10 67 55 125 102 58 47 110 90 115 96
6 6 60 51 120 100 61 49 118 96 129 104 10 8 34 30 55 47 52 47 70 51 98 19
13 -15 23 -25 23 -21 0 3 12 -6 28 -19 43 -37 148 -124 261 -216 58 -47 116
-95 130 -107 48 -40 118 -98 161 -133 23 -19 50 -42 60 -50 10 -8 33 -27 51
-42 19 -14 45 -36 59 -48 14 -12 40 -34 59 -48 34 -27 77 -63 110 -92 9 -8 37
-31 61 -50 25 -19 47 -37 50 -40 3 -3 43 -37 90 -75 47 -38 87 -71 90 -74 3
-4 39 -33 80 -66 41 -33 77 -62 80 -65 5 -5 93 -77 133 -110 11 -8 24 -20 31
-25 6 -6 85 -71 176 -145 91 -74 171 -140 178 -147 7 -7 39 -33 72 -59 33 -26
60 -51 60 -55 0 -5 5 -9 10 -9 6 0 41 -25 78 -56 98 -83 151 -126 181 -151 14
-12 58 -48 97 -80 38 -32 89 -74 113 -93 54 -44 79 -65 113 -96 15 -13 30 -24
33 -24 3 0 13 -8 23 -17 10 -10 36 -32 57 -50 22 -17 54 -43 70 -57 17 -13 41
-33 54 -44 l25 -19 0 -2023 c1 -1725 -1 -2023 -13 -2028 -8 -3 -728 -6 -1600
-6 l-1586 -1 -3 -542 -2 -543 2145 0 2145 0 0 2826 0 2826 -27 22 c-34 26
-214 174 -342 281 -46 39 -58 48 -73 60 -29 22 -123 100 -128 105 -3 3 -41 35
-85 70 -44 36 -85 69 -91 75 -6 5 -29 24 -50 42 -82 66 -190 156 -214 177 -14
12 -34 28 -46 36 -12 8 -43 34 -70 56 -27 23 -83 69 -124 103 -41 34 -84 70
-95 79 -11 10 -42 36 -70 57 -27 22 -52 42 -55 45 -3 3 -30 25 -60 50 -30 25
-60 49 -66 55 -6 5 -25 21 -43 35 -18 14 -38 30 -44 35 -23 20 -193 160 -236
195 -24 19 -48 40 -55 45 -6 6 -74 62 -151 125 -77 63 -146 120 -153 127 -8 7
-30 26 -50 41 -21 15 -39 29 -42 32 -7 7 -69 59 -125 105 -27 22 -77 63 -110
90 -33 28 -109 91 -170 140 -60 49 -112 92 -115 95 -3 3 -27 23 -55 44 -27 22
-54 44 -60 51 -5 6 -28 24 -50 40 -22 17 -44 35 -50 41 -8 9 -107 91 -198 164
-11 8 -24 20 -31 25 -99 85 -136 115 -142 115 -4 0 -12 6 -18 14 -9 11 -93 81
-199 166 -11 8 -24 20 -31 25 -6 6 -40 35 -75 64 -35 29 -70 58 -77 64 -8 7
-28 23 -45 37 -18 14 -47 37 -64 52 l-32 28 -29 -23z"/>
<path d="M1416 4513 c-65 -54 -126 -103 -137 -109 -10 -6 -16 -14 -12 -17 3
-4 2 -7 -3 -7 -6 0 -19 -8 -30 -17 -10 -10 -42 -36 -69 -57 -28 -22 -57 -47
-66 -55 -9 -9 -26 -23 -38 -31 -13 -8 -35 -26 -50 -40 -15 -14 -45 -39 -67
-57 -68 -55 -298 -244 -319 -261 -11 -10 -53 -44 -92 -77 l-73 -59 0 -1863 0
-1863 1674 0 1674 0 0 543 0 544 -1112 1 c-611 0 -1120 1 -1131 1 -20 1 -20 8
-19 1761 0 968 -2 1760 -6 1760 -3 0 -59 -44 -124 -97z"/>
</g>
</svg>
