<?xml version="1.0" encoding="utf-8"?>
<!-- Generator: Adobe Illustrator 17.0.0, SVG Export Plug-In . SVG Version: 6.00 Build 0)  -->
<!DOCTYPE svg PUBLIC "-//W3C//DTD SVG 1.1//EN" "http://www.w3.org/Graphics/SVG/1.1/DTD/svg11.dtd">
<svg version="1.1" id="Capa_1" xmlns="http://www.w3.org/2000/svg" xmlns:xlink="http://www.w3.org/1999/xlink" x="0px" y="0px"
	 width="50px" height="50px" viewBox="54.321 59.12 201.396 191.463"
	 enable-background="new 54.321 59.12 201.396 191.463" xml:space="preserve">
<g>
	<g>
		<path fill="#FFFFFF" d="M190.133,250.583c-27.383,0-58.9-13.95-87.317-39.267c-33.067-29.45-51.667-67.167-48.05-97.65
			c1.033-7.75,6.717-45.983,31.517-53.217C117.8,52.183,127.1,84.733,130.2,95.583c3.1,10.85,8.267,29.45-2.583,41.85l0,0
			c-3.1,3.617-7.233,5.683-11.367,7.233c4.65,11.367,12.4,21.183,22.217,28.417c8.267,8.783,19.117,15.5,30.483,19.117v-0.517
			c0.517-4.65,2.583-8.783,5.683-12.4c11.367-12.4,31-8.783,41.333-7.233c10.333,1.55,29.45,4.65,36.683,19.633l0,0
			c3.1,6.2,3.617,12.917,2.583,19.633c-5.683,26.35-44.95,36.167-49.083,37.2C200.983,249.55,195.817,250.583,190.133,250.583
			L190.133,250.583z M96.1,73.883L96.1,73.883c-2.067,0-4.133,0.517-6.2,1.033c-13.433,3.617-19.633,27.9-21.183,40.3
			c-3.1,25.833,13.95,58.383,43.917,85.25s64.067,39.783,89.383,34.1c9.817-2.067,35.133-10.85,37.717-25.317l0,0
			c0.517-3.617,0.517-7.233-1.033-10.333c-4.133-8.267-16.017-9.817-25.833-11.883c-7.75-1.033-22.217-3.617-28.417,2.583l0,0
			c-1.033,1.55-2.067,3.1-2.067,5.167c-0.517,4.133-2.583,7.75-5.683,9.817c-13.95,9.3-39.267-10.85-49.083-20.15
			c-9.817-9.3-33.067-32.033-25.317-47.017c2.067-3.617,5.683-6.2,9.817-6.717c2.067-0.517,3.617-1.033,4.65-2.583
			c5.683-6.717,1.55-20.667,0-28.417C110.567,80.083,103.85,73.883,96.1,73.883L96.1,73.883z"/>
	</g>
</g>
</svg>