<svg height="30" viewBox="0 0 289.956 30" width="289.956" xmlns="http://www.w3.org/2000/svg"><path d="m14.348 24.1a8.665 8.665 0 0 1 -8.348-8.743 8.665 8.665 0 0 1 8.348-8.739 8.253 8.253 0 0 1 6.261 3l4.174-3.652a14.6 14.6 0 0 0 -10.435-4.566c-7.696 0-14.348 6.391-14.348 13.957s6.652 13.956 14.348 13.956a14.1 14.1 0 0 0 10.435-4.565l-4.174-3.783a7.972 7.972 0 0 1 -6.261 3.135z" fill="#202023" transform="translate(0 .426)"/><path d="m42.874 15.257c-.13 0-.261.13-.391.13a3.875 3.875 0 0 1 -3.13-.652 4.325 4.325 0 0 1 -1.3-1.826 4.166 4.166 0 0 1 -1.826.391 5.846 5.846 0 0 1 -4.3 9.522 5.808 5.808 0 0 1 0-11.609 2.872 2.872 0 0 1 1.043.13 2.735 2.735 0 0 1 -.522-1.435 3.859 3.859 0 0 1 -1.3.261 3.523 3.523 0 0 1 -3.391-2.478c0-.13-.13-.261-.13-.391a10.711 10.711 0 0 0 -6.927 9.783c0 5.739 5.087 10.7 11.087 10.7a11 11 0 0 0 11.087-10.7 8.449 8.449 0 0 0 0-1.826z" fill="#202023" transform="translate(6.3 2.222)"/><path d="m42.087 15.326a3.875 3.875 0 0 1 -3.13-.652 4.325 4.325 0 0 1 -1.3-1.826 4.166 4.166 0 0 1 -1.826.391 3.542 3.542 0 0 1 -2.217-.783 3.312 3.312 0 0 1 -1.043-1.3 2.735 2.735 0 0 1 -.522-1.435 3.859 3.859 0 0 1 -1.3.261 3.523 3.523 0 0 1 -3.401-2.482 9.765 9.765 0 0 0 -5.348 8.478 10.051 10.051 0 0 0 20.087 0c0-.261 0-.521 0-.652z" fill="#333" transform="translate(6.696 2.283)"/><path d="m50.987 6.5c-6 0-11.087 4.826-11.087 10.565s5.087 10.7 11.087 10.7a11 11 0 0 0 11.087-10.7 11.067 11.067 0 0 0 -11.087-10.565zm0 16.435a5.808 5.808 0 1 1 5.609-5.87 5.8 5.8 0 0 1 -5.609 5.87z" fill="#202023" transform="translate(12.143 1.978)"/><path d="m79.657 8.574h-6.657l-7.565 8.739v-15.913h-5.735v27.391h5.739v-4.956l2.478-2.609 5.083 7.565h6.652l-7.822-11.348z" fill="#202023" transform="translate(18.17 .426)"/><path d="m77.061 9v20.348h5.739v-20.348zm2.87-9a3.174 3.174 0 0 0 -3.131 3.13 3.13 3.13 0 1 0 6.261 0 3.174 3.174 0 0 0 -3.131-3.13z" fill="#202023" transform="translate(23.374)"/><path d="m95 22.674a4.9 4.9 0 0 1 -4.826-3.652h14.609c0-7.7-3.783-12.522-10.043-12.522a10.178 10.178 0 0 0 -10.44 10.565 10.453 10.453 0 0 0 10.826 10.7 12.866 12.866 0 0 0 8.348-3.13l-3.652-3.783a7.16 7.16 0 0 1 -4.822 1.822zm0-11.087a4.146 4.146 0 0 1 4.3 3.261h-9a5.074 5.074 0 0 1 4.7-3.261z" fill="#202023" transform="translate(25.657 1.978)"/><g fill="#fa096d"><path d="m116.648 24.126a8.665 8.665 0 0 1 -8.348-8.739c0-4.7 3.913-8.739 8.348-8.739a8.253 8.253 0 0 1 6.261 3l4.174-3.783a14.6 14.6 0 0 0 -10.435-4.565c-7.7 0-14.348 6.391-14.348 13.957s6.652 13.957 14.348 13.957a14.1 14.1 0 0 0 10.435-4.565l-4.174-3.783a7.733 7.733 0 0 1 -6.261 3.26z" transform="translate(31.135 .396)"/><path d="m134.187 6.5c-6 0-11.087 4.826-11.087 10.565s5.087 10.7 11.087 10.7a11 11 0 0 0 11.087-10.7 10.893 10.893 0 0 0 -11.087-10.565zm0 16.435a5.8 5.8 0 0 1 -5.609-5.87 5.679 5.679 0 0 1 5.609-5.739 5.808 5.808 0 0 1 0 11.609z" transform="translate(37.465 1.978)"/><path d="m154.87 6.5a7.246 7.246 0 0 0 -6.13 3v-2.609h-5.74v20.348h5.739v-12a4.026 4.026 0 0 1 4.3-3.913c2.348 0 3.913 1.7 3.913 4.3v11.744h5.609v-12.913c-.126-4.696-3.387-7.957-7.691-7.957z" transform="translate(43.522 1.978)"/><path d="m170.413 14.687c-2.739-.783-3.522-1.043-3.522-2.217 0-.652 1.043-1.174 2.348-1.174a11.368 11.368 0 0 1 5.739 1.826l2.348-4.043a15.092 15.092 0 0 0 -7.956-2.479c-4.826 0-7.957 2.739-7.957 6.652 0 4.043 3.261 5.217 7.435 6.13 2.087.522 3.522.913 3.522 2.217 0 .913-1.043 1.565-2.609 1.565a11.479 11.479 0 0 1 -6.783-2.348l-2.478 3.914a15.033 15.033 0 0 0 9.13 3c4.957 0 8.217-2.609 8.217-6.522-.13-4.434-4.047-5.608-7.434-6.521z" transform="translate(48.848 2.009)"/><path d="m186.5 22.674a4.9 4.9 0 0 1 -4.826-3.652h14.609c0-7.7-3.783-12.522-10.043-12.522a10.178 10.178 0 0 0 -10.44 10.565 10.453 10.453 0 0 0 10.826 10.7 12.866 12.866 0 0 0 8.348-3.13l-3.652-3.783a7.159 7.159 0 0 1 -4.822 1.822zm0-11.087a4.146 4.146 0 0 1 4.3 3.261h-9a4.825 4.825 0 0 1 4.7-3.261z" transform="translate(53.504 1.978)"/><path d="m206.27 6.5a7.246 7.246 0 0 0 -6.13 3v-2.609h-5.74v20.348h5.739v-12a4.026 4.026 0 0 1 4.3-3.913c2.348 0 3.783 1.7 3.783 4.3v11.744h5.609v-12.913c.004-4.696-3.131-7.957-7.561-7.957z" transform="translate(59.165 1.978)"/><path d="m224.03 23.47a2.935 2.935 0 0 1 -1.957.652 2.118 2.118 0 0 1 -1.957-2.348v-9h4.435v-4.565h-4.435v-5.609h-5.478v5.609h-2.738v4.565h2.739v9.913a5.924 5.924 0 0 0 6.13 6.261 7.385 7.385 0 0 0 4.7-1.7z" transform="translate(64.491 .791)"/></g><path d="m30 4.343a1.065 1.065 0 0 1 1.174-1.043 1.15 1.15 0 0 1 1.174 1.043 1.261 1.261 0 0 1 -1.174 1.174 1.169 1.169 0 0 1 -1.174-1.174z" fill="#333" transform="translate(9.13 1.004)"/><path d="m32.5 7.1a1.4 1.4 0 0 1 1.3-1.3 1.232 1.232 0 0 1 1.3 1.3 1.307 1.307 0 0 1 -1.3 1.3 1.4 1.4 0 0 1 -1.3-1.3z" fill="#333" transform="translate(9.891 1.765)"/><path d="m36.2 6.022a.6.6 0 0 1 .652-.522.561.561 0 0 1 .522.522.561.561 0 0 1 -.522.522.6.6 0 0 1 -.652-.522z" fill="#333" transform="translate(11.017 1.674)"/></svg>