<?xml version="1.0" encoding="utf-8"?>
<!-- Generator: Adobe Illustrator 17.0.0, SVG Export Plug-In . SVG Version: 6.00 Build 0)  -->
<!DOCTYPE svg PUBLIC "-//W3C//DTD SVG 1.1//EN" "http://www.w3.org/Graphics/SVG/1.1/DTD/svg11.dtd">
<svg version="1.1" id="Capa_1" xmlns="http://www.w3.org/2000/svg" xmlns:xlink="http://www.w3.org/1999/xlink" x="0px" y="0px"
	 width="50px" height="50px" viewBox="35.65 73.883 238.183 162.233"
	 enable-background="new 35.65 73.883 238.183 162.233" xml:space="preserve">
<g>
	<g>
		<path fill="#FFFFFF" d="M48.567,73.883c-6.717,0-12.917,5.683-12.917,12.4V223.2c0,6.717,5.683,12.917,12.917,12.917h212.35
			c6.717,0,12.917-5.683,12.917-12.917V86.283c0-6.717-5.683-12.4-12.917-12.4L48.567,73.883z M56.833,84.733h196.333L155,161.2
			L56.833,84.733z M47.017,90.417l76.467,59.417l-76.467,68.2V90.417z M262.983,90.417v127.617l-76.467-67.683L262.983,90.417z
			 M132.267,157.067l19.633,15.5c2.067,1.55,4.65,1.55,6.717,0l19.633-15.5l76.983,68.2H55.283L132.267,157.067z"/>
	</g>
</g>
</svg>