<?xml version="1.0" encoding="utf-8"?>
<!-- Generator: Adobe Illustrator 17.0.0, SVG Export Plug-In . SVG Version: 6.00 Build 0)  -->
<!DOCTYPE svg PUBLIC "-//W3C//DTD SVG 1.1//EN" "http://www.w3.org/Graphics/SVG/1.1/DTD/svg11.dtd">
<svg version="1.1" id="Capa_1" xmlns="http://www.w3.org/2000/svg" xmlns:xlink="http://www.w3.org/1999/xlink" x="0px" y="0px"
	 width="100px" height="100px" viewBox="0 0 100.039 93.31" enable-background="new 0 0 100.039 93.31" xml:space="preserve">
<path fill="#000" d="M69.41,13.051c0-2.298-0.01-4.252,0.002-6.206c0.026-4.427,2.24-6.641,6.644-6.657
	c1.16-0.004,2.32-0.005,3.48,0c3.811,0.018,6.222,2.397,6.228,6.238c0.012,7.28,0.004,14.559-0.054,21.838
	c-0.01,1.258,0.367,2.177,1.256,3.071c3.497,3.514,6.912,7.11,10.383,10.65c2.535,2.585,3.444,5.508,2.009,8.965
	c-1.454,3.502-4.234,4.932-7.87,4.994c-1.28,0.022-2.56,0-3.84,0.006c-1.753,0.007-1.755,0.01-1.755,1.823
	c-0.001,7.32,0,14.64,0,21.96c0,0.43,0,0.861,0,1.518c-0.403-0.33-0.645-0.496-0.849-0.7c-5.13-5.108-10.243-10.234-15.399-15.316
	c-0.687-0.678-0.788-1.202-0.363-2.069c6.656-13.562-1.873-29.307-16.876-30.844c-12.076-1.237-22.849,7.716-23.641,20.082
	c-0.824,12.862,10.163,23.69,23.013,22.63c2.827-0.233,5.503-0.945,8.022-2.235c0.728-0.373,1.292-0.379,1.92,0.253
	c6.206,6.239,12.435,12.455,18.656,18.679c0.135,0.135,0.244,0.297,0.645,0.79c-1.708,0.291-3.16,0.75-4.613,0.754
	c-16.519,0.051-33.039,0.033-49.558,0.029c-0.959,0-1.917-0.071-2.876-0.072c-5.906-0.008-9.667-3.739-9.68-9.673
	c-0.019-8.64-0.004-17.28-0.006-25.92c0-1.611-0.068-1.606-1.696-1.625c-2.149-0.025-4.353,0.109-6.432-0.317
	c-3.929-0.805-6.693-4.928-6.073-8.837c0.352-2.219,1.599-4.058,3.171-5.659C13.37,30.899,23.475,20.59,33.59,10.29
	c1.96-1.996,3.95-3.964,5.934-5.937c5.696-5.665,14.975-5.836,20.822-0.306c2.671,2.527,5.198,5.206,7.794,7.813
	C68.471,12.193,68.824,12.503,69.41,13.051z"/>
<path fill="#000" d="M39.574,53.676c-0.032-5.851,4.435-10.418,10.218-10.448c5.847-0.03,10.388,4.428,10.419,10.229
	c0.03,5.773-4.548,10.43-10.269,10.446C44.245,63.92,39.605,59.343,39.574,53.676z"/>
</svg>