<?xml version="1.0" encoding="utf-8"?>
<!-- Generator: Adobe Illustrator 17.0.0, SVG Export Plug-In . SVG Version: 6.00 Build 0)  -->
<!DOCTYPE svg PUBLIC "-//W3C//DTD SVG 1.1//EN" "http://www.w3.org/Graphics/SVG/1.1/DTD/svg11.dtd">
<svg version="1.1" id="Capa_1" xmlns="http://www.w3.org/2000/svg" xmlns:xlink="http://www.w3.org/1999/xlink" x="0px" y="0px"
	 width="310px" height="310px" viewBox="0 0 310 310" enable-background="new 0 0 310 310" xml:space="preserve">
<g>
	<path fill="#FFFFFF" d="M102.722,133.155c0.003,0.001,0.008,0.003,0.011,0.003c-0.319-1.539-0.574-3.071-0.771-4.587
		C102.157,130.112,102.412,131.642,102.722,133.155z"/>
	<path fill="#FFFFFF" d="M138.428,67.754c6.437-2.145,12.033-3.451,17.099-3.986c4.963-0.525,8.696-0.769,11.746-0.769
		c3.263,0,5.675,0.277,8.441,0.727l0.782-4.967c0,0-7.637-2.347-17.664-1.528l-0.788-2.703c3.113-0.66,5.451-3.423,5.451-6.733
		c0-3.802-3.082-6.883-6.883-6.883c-3.802,0-6.884,3.081-6.884,6.883c0,3.309,2.336,6.072,5.449,6.732l0.876,3.008
		c-10.645,1.471-19.124,5.63-19.124,5.63L138.428,67.754z"/>
	<path fill="#FFFFFF" d="M108.221,88.089c0.249-0.317,0.494-0.62,0.736-0.915l-2.03-1.478l-3.184-2.328
		c-0.187,0.256-5.183,4.85-9.129,13.354c-0.172-0.268-0.367-0.529-0.589-0.775c-1.184-1.305-2.841-1.954-4.938-1.919
		c-0.03,0.001-0.061,0.001-0.092,0.001c-1.31,0-2.199-0.444-2.789-0.965c0.582-0.741,0.933-1.673,0.933-2.689
		c0-2.408-1.952-4.359-4.359-4.359c-2.408,0-4.36,1.952-4.36,4.359c0,2.408,1.952,4.359,4.36,4.359c0.373,0,0.733-0.052,1.079-0.14
		c1.074,1.193,2.78,2.232,5.271,2.188c1.279-0.021,2.211,0.308,2.847,1.006c0.724,0.793,0.966,1.928,1.038,2.785
		c-0.004,0.011-0.008,0.021-0.013,0.032c-2.846,7.755-2.028,17.4-2.028,17.4l6.884,0.275c0.141-3.515,0.646-9.655,2.422-14.541
		c3.434-9.435,7.723-15.355,7.903-15.602L108.221,88.089z"/>
	<path fill="#FFFFFF" d="M227.221,68.761c-2.408,0-4.359,1.952-4.359,4.359c0,0.374,0.052,0.736,0.141,1.082
		c-1.19,1.074-2.228,2.779-2.188,5.268c0.02,1.279-0.309,2.211-1.006,2.847c-0.546,0.498-1.255,0.767-1.923,0.911
		c-5.135-7.169-11.451-11.563-11.451-11.563l-4.944,5.303c3.739,3.406,7.552,7.661,11.268,12.973
		c2.562,3.663,5.197,8.406,7.402,13.121l6.675-3.16c0,0-3.047-7.533-7.342-14.282c0.748-0.265,1.5-0.663,2.155-1.257
		c1.305-1.183,1.95-2.844,1.918-4.937c-0.022-1.362,0.43-2.278,0.964-2.882c0.741,0.582,1.674,0.933,2.689,0.933
		c2.408,0,4.36-1.952,4.36-4.36C231.581,70.712,229.629,68.761,227.221,68.761z"/>
	<path fill="#FFFFFF" d="M209.902,128.732c-9.183,4.471-24.302,10.38-44.189,13.149c-7.808,1.087-15.383,1.494-22.34,1.494
		c-9.058,0-16.999-0.689-23.143-1.462c-7.011-0.881-12.611-1.965-15.776-2.717v-0.001c0-0.002-0.086-0.003-0.093-0.004
		c0.813,2.577,1.758,5.075,2.893,7.463c0.015,0.032,0.009,0.063,0.025,0.095c0.028,0.058,0.048,0.118,0.077,0.177
		c0.141,0.294,0.279,0.586,0.425,0.876c0.139,0.276,0.277,0.549,0.42,0.822c0.037,0.072,0.073,0.142,0.11,0.213
		c1.974,3.721,4.338,7.132,7.041,10.091c9.377,10.269,18.937,11.882,19.032,11.897l0.148,0.023l0.143,0.048
		c0.082,0.027,8.56,2.77,21.452,2.77c12.676,0,25.115-2.556,36.968-7.597c8.779-4.49,17.093-11.318,21.195-17.407
		c3.188-4.703,5.492-9.731,6.854-14.949c0.724-2.779,1.29-7.207,0.962-11.886C219.513,123.551,215.431,126.04,209.902,128.732z
		 M104.791,140.651c0.27,0.789,0.551,1.576,0.856,2.357C105.341,142.226,105.06,141.44,104.791,140.651z"/>
	<path fill="#FFFFFF" d="M164.954,136.425c19.072-2.654,33.556-8.292,42.349-12.553c7.309-3.542,12.001-6.745,13.82-8.068
		c-1.807-6.699-6.793-17.213-11.37-23.756c-13.059-18.67-27.146-23.464-34.38-24.659c-2.762-0.456-4.973-0.72-8.1-0.72
		c-2.918,0-6.527,0.237-11.361,0.748c-4.845,0.513-10.242,1.781-16.5,3.877c-8.786,2.943-16.734,7.559-22.984,13.352l-0.21,0.194
		c-0.931,0.862-2.864,2.652-5.085,5.484c-0.274,0.383-4.352,6.026-7.497,14.67c-2.359,6.485-2.347,15.94-2.347,16.035v0.027
		c0,2.206,0.221,4.409,0.465,6.595c0.004,0.035,0.056,0.07,0.06,0.104c0.031,0.273,0.09,0.544,0.125,0.815
		c0.198,1.517,0.464,3.048,0.783,4.587C107.282,134.31,134.518,140.662,164.954,136.425z M191.083,85.984
		c6.272,0,11.357,5.085,11.357,11.357c0,6.273-5.085,11.357-11.357,11.357c-6.273,0-11.358-5.084-11.358-11.357
		C179.725,91.068,184.81,85.984,191.083,85.984z M119.026,103.88c0.001-10.137,8.219-18.355,18.355-18.355
		c10.137,0,18.355,8.218,18.355,18.355s-8.219,18.354-18.355,18.354C127.245,122.235,119.026,114.017,119.026,103.88z"/>
</g>
<g>
	<path fill="#FFFFFF" d="M23.876,187.938c0.797-1.419,2.38-2.061,4.713-2.061c0.914,0,1.959,0.117,3.28,0.292
		c1.148,0.116,2.068,0.291,2.573,0.291c1.031,0,2.065-0.408,2.861-1.321c0.797-0.797,1.15-1.945,1.15-3.092
		c0-3.772-3.771-5.715-11.548-5.715c-4.277,0-7.776,0.505-10.226,1.653c-2.45,1.03-4.131,2.858-5.162,5.307
		c-1.03,2.449-1.39,5.715-1.39,9.837v4.148H6.746c-4.393,0-6.629,1.464-6.746,4.614c0,1.419,0.506,2.606,1.536,3.52
		c1.03,0.914,2.566,1.362,4.51,1.362h3.45v34.823c0,2.566,0.579,4.511,1.902,5.949c1.322,1.419,2.895,2.061,4.722,2.061
		c1.944,0,3.5-0.622,4.823-2.061c1.147-1.321,1.849-3.363,1.849-5.949v-34.823h3.262c2.352,0,4.277-0.484,5.541-0.989
		c1.419-0.622,2.061-1.852,2.061-4.088c0-2.975-2.449-4.418-7.485-4.418H22.79v-3.351C22.79,191.321,23.255,189.377,23.876,187.938z
		"/>
	<path fill="#FFFFFF" d="M73.022,203.667c0-2.353-1.322-4.181-3.888-5.541c-2.566-1.38-5.308-2.061-8.049-2.061
		c-2.741,0-4.918,0.623-6.629,2.061c-1.652,1.322-3.363,3.363-4.919,6.105c0-2.566-0.622-4.686-1.536-6.105
		c-1.03-1.419-2.579-2.061-4.815-2.061c-4.277,0-6.468,2.975-6.468,8.924v36.802c0,2.567,0.635,4.686,1.841,5.949
		c1.148,1.42,2.748,2.061,4.692,2.061c1.944,0,3.488-0.622,4.81-1.945c1.322-1.419,1.952-3.363,1.952-6.105v-11.023
		c0-4.005,0.113-7.369,0.287-10.11c0.291-2.741,0.795-5.19,1.417-7.135c0.622-2.061,1.535-3.479,2.856-4.511
		c1.322-1.03,2.858-1.536,4.802-1.536c1.419,0,3.091,0.292,4.919,0.914c1.828,0.622,2.974,0.913,3.48,0.913
		c1.322,0,2.449-0.505,3.597-1.536C72.516,206.622,73.022,205.202,73.022,203.667z"/>
	<path fill="#FFFFFF" d="M118.398,224.618c1.944-1.031,2.858-3.146,2.858-6.51c0-3.481-0.913-7.006-2.741-10.545
		c-1.828-3.363-4.51-6.236-8.282-8.413c-3.772-2.236-8.165-3.273-13.317-3.273c-4.005,0-7.66,0.618-10.849,1.94
		c-3.363,1.148-6.104,3.09-8.282,5.422c-2.236,2.352-3.888,5.19-5.035,8.573c-1.147,3.363-1.653,6.979-1.653,10.848
		c0,8.282,2.45,14.912,7.135,19.713c4.802,4.802,11.256,7.252,19.83,7.252c3.772,0,6.979-0.506,9.838-1.419
		c2.858-0.914,5.19-2.236,7.135-3.597c1.943-1.419,3.363-2.975,4.277-4.51c0.914-1.536,1.419-2.975,1.419-4.181
		c0-1.322-0.505-2.352-1.322-3.091c-0.797-0.797-1.944-1.147-3.266-1.147c-1.148,0-2.236,0.292-2.858,0.913
		c-1.653,1.536-2.975,2.741-4.005,3.598c-1.031,0.913-2.236,1.828-3.363,2.566c-1.147,0.797-2.45,1.322-3.772,1.653
		c-1.322,0.349-2.742,0.505-4.278,0.505c-2.352,0-4.511-0.505-6.454-1.652c-1.944-1.147-3.481-2.748-4.685-5.082
		c-1.148-2.235-1.828-5.251-1.828-7.783h25.895C114.101,226.398,116.842,225.764,118.398,224.618z M84.861,218.802
		c0.506-4.431,1.828-7.947,3.888-10.164c2.236-2.236,4.919-3.39,8.165-3.39c3.363,0,6.221,1.187,8.282,3.403
		c2.061,2.236,3.266,5.718,3.596,10.15L84.861,218.802L84.861,218.802z"/>
	<path fill="#FFFFFF" d="M173.184,224.618c1.943-1.031,2.858-3.146,2.858-6.51c0-3.481-0.914-7.006-2.742-10.545
		c-1.828-3.363-4.51-6.236-8.282-8.413c-3.771-2.236-8.165-3.273-13.317-3.273c-4.005,0-7.661,0.618-10.849,1.94
		c-3.266,1.148-5.948,3.09-8.165,5.422c-2.236,2.352-3.888,5.19-5.036,8.573c-1.147,3.383-1.652,6.979-1.652,10.848
		c0,8.282,2.449,14.912,7.135,19.713c4.802,4.802,11.257,7.252,19.831,7.252c3.772,0,6.979-0.506,9.837-1.419
		c2.858-0.914,5.192-2.236,7.135-3.597c1.944-1.419,3.363-2.975,4.278-4.51c0.913-1.536,1.419-2.975,1.419-4.181
		c0-1.322-0.506-2.352-1.322-3.091c-0.797-0.797-1.944-1.147-3.266-1.147c-1.147,0-2.235,0.292-2.858,0.913
		c-1.653,1.536-2.975,2.741-4.005,3.598c-1.031,0.913-2.236,1.828-3.363,2.566c-1.147,0.797-2.449,1.322-3.772,1.653
		c-1.322,0.408-2.741,0.505-4.277,0.505c-2.352,0-4.511-0.505-6.455-1.652c-1.944-1.147-3.48-2.748-4.686-5.082
		c-1.146-2.235-1.828-5.251-1.828-7.783h25.877C169.139,226.398,171.764,225.764,173.184,224.618z M139.764,218.802
		c0.505-4.431,1.828-7.947,3.888-10.164c2.236-2.236,4.918-3.39,8.165-3.39c3.363,0,6.222,1.187,8.282,3.403
		c2.061,2.236,3.363,5.718,3.597,10.15L139.764,218.802L139.764,218.802z"/>
	<path fill="#FFFFFF" d="M222.622,199.079c-3.48-2.061-7.252-3.092-11.256-3.092c-3.363,0-6.419,0.798-9.16,2.236
		c-2.742,1.419-5.325,3.598-7.857,6.747v-1.535c0-2.353-0.425-4.181-1.455-5.717c-1.148-1.322-2.701-1.944-4.47-1.944
		c-1.944,0-3.334,0.505-4.481,1.828c-1.148,1.322-1.623,3.267-1.623,5.716v56.905c0,2.974,0.399,5.035,1.137,6.629
		c0.798,1.42,2.583,2.236,5.053,2.236c4.277,0,6.471-2.858,6.471-8.69v-19.83c1.899,2.974,4.664,5.19,7.229,6.746
		c2.45,1.536,5.647,2.352,9.361,2.352c3.091,0,6.07-0.505,8.772-1.828c2.682-1.321,5.174-2.973,7.118-5.307
		c1.944-2.352,3.471-5.191,4.676-8.573c1.147-3.48,1.648-7.252,1.648-11.257c0-5.541-1.033-10.342-2.977-14.405
		C228.729,204.288,225.986,201.198,222.622,199.079z M218.909,232.109c-1.148,2.449-2.742,4.394-4.511,5.716
		c-1.828,1.322-3.889,1.944-6.105,1.944c-3.596,0-6.746-1.419-9.195-4.394c-2.45-2.974-3.772-6.979-3.772-12.286
		c0-5.541,1.322-9.838,3.772-12.676c2.449-2.858,5.54-4.277,9.195-4.277c2.236,0,4.278,0.622,6.222,1.943
		c1.828,1.322,3.363,3.267,4.394,5.715c1.03,2.45,1.536,5.425,1.536,8.924C220.445,226.18,219.94,229.252,218.909,232.109z"/>
	<path fill="#FFFFFF" d="M247.138,176.973c-1.828,0-3.363,0.622-4.685,1.828c-1.419,1.322-2.061,2.858-2.061,4.686
		c0,2.061,0.622,3.596,1.944,4.802c1.322,1.147,2.858,1.652,4.685,1.652s3.363-0.622,4.685-1.652
		c1.322-1.147,1.945-2.742,1.945-4.802c0-2.061-0.622-3.596-1.945-4.802C250.384,177.48,248.79,176.973,247.138,176.973z"/>
	<path fill="#FFFFFF" d="M246.846,196.007c-1.944,0-3.367,0.622-4.571,1.944c-1.146,1.42-1.713,3.363-1.713,5.949v37.832
		c0,2.566,0.508,4.511,1.713,5.949c1.148,1.419,2.685,2.061,4.628,2.061s3.583-0.797,4.905-2.061
		c1.322-1.264,2.047-3.363,2.047-5.949v-38.24c0-2.352-0.753-4.18-2.076-5.541C250.516,196.629,248.79,196.007,246.846,196.007z"/>
	<path fill="#FFFFFF" d="M309.409,240.293c-0.506-0.913-1.148-2.061-2.236-3.596l-13.59-21.269l6.979-6.455
		c3.48-3.266,5.307-5.832,5.307-7.776c0-1.536-0.622-2.858-1.652-3.889c-1.146-1.031-2.449-1.536-4.179-1.536
		c-1.322,0-2.566,0.409-3.48,1.031c-1.031,0.796-2.495,2.061-4.323,4.005l-14.956,15.533v-32c0-2.566-0.577-4.686-1.783-6.105
		c-1.147-1.419-2.719-2.061-4.78-2.061c-2.061,0-3.735,0.797-4.94,2.353c-1.147,1.536-1.792,3.771-1.792,6.746v56.341
		c0,2.566,0.656,4.686,1.803,5.949c1.147,1.419,2.816,2.061,4.876,2.061c1.828,0,3.356-0.622,4.678-2.061
		c1.322-1.322,1.937-3.266,1.937-5.832v-10.518l7.18-6.746l11.687,19.149c1.419,2.353,2.578,3.889,3.9,4.394
		c0.914,0.914,2.241,1.322,3.777,1.322c1.944,0,3.367-0.622,4.513-1.828c1.148-1.147,1.654-2.858,1.654-4.919
		C310.049,241.83,309.817,241.091,309.409,240.293z"/>
</g>
</svg>