<?xml version="1.0" encoding="utf-8"?>
<!-- Generator: Adobe Illustrator 17.0.0, SVG Export Plug-In . SVG Version: 6.00 Build 0)  -->
<!DOCTYPE svg PUBLIC "-//W3C//DTD SVG 1.1//EN" "http://www.w3.org/Graphics/SVG/1.1/DTD/svg11.dtd">
<svg version="1.1" id="Capa_1" xmlns="http://www.w3.org/2000/svg" xmlns:xlink="http://www.w3.org/1999/xlink" x="0px" y="0px"
	 width="50px" height="50px" viewBox="74.4 52.7 161.2 205.117" enable-background="new 74.4 52.7 161.2 205.117"
	 xml:space="preserve">
<g>
	<path fill="#FFFFFF" d="M155,168.433c19.633,0,35.133-16.017,35.133-35.133S174.117,98.167,155,98.167
		s-35.133,16.017-35.133,35.133S135.367,168.433,155,168.433z M130.2,132.783c0-13.433,10.85-24.8,24.8-24.8
		c13.95,0,24.8,10.85,24.8,24.8c0,13.433-10.85,24.8-24.8,24.8C141.05,157.583,130.2,146.733,130.2,132.783z"/>
	<path fill="#FFFFFF" d="M155,52.7c-44.433,0-80.6,36.167-80.6,80.6c0,81.633,79.05,123.483,79.567,124l1.033,0.517l1.033-0.517
		c1.033-0.517,79.567-42.883,79.567-124C235.6,88.867,199.433,52.7,155,52.7z M155,65.1c37.717,0,68.2,30.483,68.2,68.2
		c0,62-51.15,99.2-68.2,110.05C137.95,232.5,86.8,195.3,86.8,133.3C86.8,95.583,117.283,65.1,155,65.1z"/>
</g>
</svg>