<?xml version="1.0" encoding="utf-8"?>
<!-- Generator: Adobe Illustrator 17.0.0, SVG Export Plug-In . SVG Version: 6.00 Build 0)  -->
<!DOCTYPE svg PUBLIC "-//W3C//DTD SVG 1.1//EN" "http://www.w3.org/Graphics/SVG/1.1/DTD/svg11.dtd">
<svg version="1.1" id="Capa_1" xmlns="http://www.w3.org/2000/svg" xmlns:xlink="http://www.w3.org/1999/xlink" x="0px" y="0px"
	 width="25px" height="25px" viewBox="0 0 310 299.957" enable-background="new 0 0 310 299.957" xml:space="preserve">
<path d="M219.971,271.282H102.946c-5.716-0.012-11.39-0.972-16.792-2.842l-15.758,31.517l-11.625-5.683l15.758-31.517
	c-7.6-4.989-13.748-11.895-17.825-20.021L6.458,142.116h97.65c7.98,0.009,15.85,1.865,22.992,5.425l29.967,14.983
	c7.142,3.56,15.012,5.416,22.992,5.425h123.483l-37.458,74.788c-4.041,8.11-10.144,15.014-17.696,20.021l15.758,31.517
	l-11.625,5.683l-15.758-31.517C231.361,270.31,225.687,271.271,219.971,271.282z M271.25,142.116h32.292
	c3.567,0,6.458,2.891,6.458,6.458c0,3.567-2.891,6.458-6.458,6.458H186.517c-8.974-0.045-17.816-2.167-25.833-6.2l-29.967-14.854
	c-6.256-3.131-13.154-4.767-20.15-4.779H6.458c-3.567,0-6.458-2.892-6.458-6.458c0-3.567,2.891-6.458,6.458-6.458h104.108
	c9.042,0,17.825,2.067,25.833,6.2l29.967,14.854c6.256,3.131,13.154,4.767,20.15,4.779h71.817V25.866
	c-0.019-7.134-5.817-12.902-12.95-12.883c-3.628,0.009-7.085,1.544-9.525,4.229c8.267,12.529,6.846,29.579-4.133,40.558l-4.521,4.65
	l-45.725-45.725L186,12.174c10.851-10.885,27.87-12.614,40.688-4.133c9.827-10.344,26.178-10.763,36.522-0.936
	c5.142,4.885,8.05,11.669,8.041,18.761V142.116z M200.467,17.47L226.3,43.303c4.612-9.656,0.522-21.222-9.133-25.833
	C211.886,14.948,205.748,14.948,200.467,17.47z M68.329,237.053c6.587,13.072,19.979,21.317,34.617,21.313h117.025
	c14.667-0.02,28.065-8.319,34.617-21.442l28.029-56.058H180.058c-10.002-0.021-19.862-2.364-28.804-6.846l-29.838-14.854
	c-5.371-2.702-11.296-4.117-17.308-4.133H27.383l40.946,81.892L68.329,237.053z"/>
</svg>
